<?xml version="1.0" encoding="UTF-8" standalone="no"?>
<!-- Created with Inkscape (http://www.inkscape.org/) -->

<svg
   xmlns:dc="http://purl.org/dc/elements/1.1/"
   xmlns:cc="http://creativecommons.org/ns#"
   xmlns:rdf="http://www.w3.org/1999/02/22-rdf-syntax-ns#"
   xmlns:svg="http://www.w3.org/2000/svg"
   xmlns="http://www.w3.org/2000/svg"
   xmlns:sodipodi="http://sodipodi.sourceforge.net/DTD/sodipodi-0.dtd"
   xmlns:inkscape="http://www.inkscape.org/namespaces/inkscape"
   width="45"
   height="45"
   id="svg3217"
   version="1.1"
   inkscape:version="0.48.4 r9939"
   sodipodi:docname="icone-avirada.svg">
  <defs
     id="defs3219" />
  <sodipodi:namedview
     id="base"
     pagecolor="#ffffff"
     bordercolor="#666666"
     borderopacity="1.0"
     inkscape:pageopacity="0.0"
     inkscape:pageshadow="2"
     inkscape:zoom="4.0619356"
     inkscape:cx="15.162093"
     inkscape:cy="23.343565"
     inkscape:document-units="px"
     inkscape:current-layer="layer1"
     showgrid="false"
     inkscape:window-width="770"
     inkscape:window-height="716"
     inkscape:window-x="595"
     inkscape:window-y="336"
     inkscape:window-maximized="0" />
  <metadata
     id="metadata3222">
    <rdf:RDF>
      <cc:Work
         rdf:about="">
        <dc:format>image/svg+xml</dc:format>
        <dc:type
           rdf:resource="http://purl.org/dc/dcmitype/StillImage" />
        <dc:title></dc:title>
      </cc:Work>
    </rdf:RDF>
  </metadata>
  <g
     inkscape:label="Camada 1"
     inkscape:groupmode="layer"
     id="layer1"
     transform="translate(0,-1007.3622)">
    <g
       id="g3168"
       transform="matrix(2.1186441,0,0,-2.1186441,-65.872412,1596.0359)">
      <path
         inkscape:connector-curvature="0"
         id="path48"
         style="fill:#ffffff;fill-opacity:1;fill-rule:nonzero;stroke:none"
         d="m 45.332,263.252 1.448,0 0,-1.448 -1.448,0 0,1.448 z m -2.172,0 1.448,0 0,-1.448 -1.448,0 0,1.448 z m -2.172,0 1.448,0 0,-1.448 -1.448,0 0,1.448 z m -2.173,0 1.448,0 0,-1.448 -1.448,0 0,1.448 z m -2.172,0 1.448,0 0,-1.448 -1.448,0 0,1.448 z m 8.689,2.172 1.448,0 0,-1.448 -1.448,0 0,1.448 z m -2.172,0 1.448,0 0,-1.448 -1.448,0 0,1.448 z m -2.172,0 1.448,0 0,-1.448 -1.448,0 0,1.448 z m -2.173,0 1.448,0 0,-1.448 -1.448,0 0,1.448 z m -2.172,0 1.448,0 0,-1.448 -1.448,0 0,1.448 z m 8.689,2.172 1.448,0 0,-1.448 -1.448,0 0,1.448 z m -2.172,0 1.448,0 0,-1.448 -1.448,0 0,1.448 z m -2.172,0 1.448,0 0,-1.448 -1.448,0 0,1.448 z m -2.173,0 1.448,0 0,-1.448 -1.448,0 0,1.448 z m -2.172,0 1.448,0 0,-1.448 -1.448,0 0,1.448 z m 8.689,4.798 0,-0.453 c 0,-0.4 0.324,-0.724 0.724,-0.724 0.4,0 0.724,0.324 0.724,0.724 l 0,0.453 c 0.232,-0.208 0.364,-0.504 0.362,-0.815 -0.002,-0.6 -0.491,-1.084 -1.091,-1.081 -0.596,0.002 -1.078,0.485 -1.081,1.081 -10e-4,0.311 0.13,0.607 0.362,0.815 m -8.689,0 0,-0.453 c 0,-0.4 0.324,-0.724 0.724,-0.724 0.4,0 0.724,0.324 0.724,0.724 l 0,0.453 c 0.232,-0.208 0.364,-0.504 0.362,-0.815 0,-0.6 -0.486,-1.086 -1.086,-1.086 -0.6,0 -1.086,0.486 -1.086,1.086 -0.002,0.311 0.13,0.607 0.362,0.815 m 0.724,2.443 c -0.1,0 -0.185,-0.008 -0.272,-0.045 -0.092,-0.036 -0.158,-0.089 -0.226,-0.158 -0.059,-0.061 -0.124,-0.122 -0.158,-0.204 -0.042,-0.091 -0.068,-0.21 -0.068,-0.317 l 0,-0.724 c -0.8,0 -1.448,-0.648 -1.448,-1.448 l 0,-2.172 0,-0.724 c -0.005,-0.045 0,-0.091 0,-0.136 l 0,-7.83 c 0,-0.796 0.648,-1.448 1.448,-1.448 l 4.345,0 1.448,0 4.344,0 c 0.8,0 1.449,0.652 1.449,1.448 l 0,7.83 c 0,0.045 0.004,0.091 0,0.136 l 0,0.724 0,2.172 c 0,0.8 -0.649,1.448 -1.449,1.448 l 0,0.724 c 0,0.1 -0.008,0.208 -0.045,0.294 -0.004,0.007 0.004,0.017 0,0.023 -0.036,0.08 -0.097,0.143 -0.158,0.204 -0.068,0.069 -0.134,0.122 -0.227,0.158 -0.086,0.037 -0.194,0.045 -0.294,0.045 -0.1,0 -0.185,-0.008 -0.271,-0.045 -0.093,-0.036 -0.158,-0.089 -0.227,-0.158 -0.061,-0.061 -0.122,-0.124 -0.158,-0.204 -0.037,-0.088 -0.068,-0.208 -0.068,-0.317 l 0,-0.724 -2.896,0 -1.448,0 -2.897,0 0,0.724 c 0,0.2 -0.072,0.39 -0.203,0.521 -0.069,0.069 -0.134,0.122 -0.227,0.158 -0.086,0.037 -0.194,0.045 -0.294,0.045 z" />
    </g>
  </g>
</svg>
