<?xml version="1.0" encoding="UTF-8" standalone="no"?>
<!-- Created with Inkscape (http://www.inkscape.org/) -->

<svg
   xmlns:dc="http://purl.org/dc/elements/1.1/"
   xmlns:cc="http://creativecommons.org/ns#"
   xmlns:rdf="http://www.w3.org/1999/02/22-rdf-syntax-ns#"
   xmlns:svg="http://www.w3.org/2000/svg"
   xmlns="http://www.w3.org/2000/svg"
   xmlns:sodipodi="http://sodipodi.sourceforge.net/DTD/sodipodi-0.dtd"
   xmlns:inkscape="http://www.inkscape.org/namespaces/inkscape"
   width="45"
   height="45"
   id="svg3217"
   version="1.1"
   inkscape:version="0.48.4 r9939"
   sodipodi:docname="icone-minhavirada.svg">
  <defs
     id="defs3219" />
  <sodipodi:namedview
     id="base"
     pagecolor="#ffffff"
     bordercolor="#666666"
     borderopacity="1.0"
     inkscape:pageopacity="0.0"
     inkscape:pageshadow="2"
     inkscape:zoom="4.0619356"
     inkscape:cx="15.162093"
     inkscape:cy="23.343565"
     inkscape:document-units="px"
     inkscape:current-layer="layer1"
     showgrid="false"
     inkscape:window-width="770"
     inkscape:window-height="716"
     inkscape:window-x="595"
     inkscape:window-y="336"
     inkscape:window-maximized="0" />
  <metadata
     id="metadata3222">
    <rdf:RDF>
      <cc:Work
         rdf:about="">
        <dc:format>image/svg+xml</dc:format>
        <dc:type
           rdf:resource="http://purl.org/dc/dcmitype/StillImage" />
        <dc:title></dc:title>
      </cc:Work>
    </rdf:RDF>
  </metadata>
  <g
     inkscape:label="Camada 1"
     inkscape:groupmode="layer"
     id="layer1"
     transform="translate(0,-1007.3622)">
    <g
       id="g3207"
       transform="matrix(2.1186441,0,0,-2.1186441,-65.967586,1080.8162)">
      <g
         transform="translate(41.7379,28.4122)"
         id="g94">
        <path
           inkscape:connector-curvature="0"
           id="path96"
           style="fill:#ffffff;fill-opacity:1;fill-rule:nonzero;stroke:none"
           d="m 0,0 c 0,-0.022 0.002,-0.044 0.002,-0.066 0,-1.627 -2.548,-4.66 -2.838,-5.001 l -0.342,-0.401 -0.342,0.401 c -0.175,0.205 -1.161,1.378 -1.923,2.636 l 0,-8.957 1.487,0 L 2.145,0 0,0 z" />
      </g>
      <g
         transform="translate(40.0484,17.024)"
         id="g98">
        <path
           inkscape:connector-curvature="0"
           id="path100"
           style="fill:#ffffff;fill-opacity:1;fill-rule:nonzero;stroke:none"
           d="m 0,0 7.635,0 0,1.072 L 2.149,4.011 0,0 z" />
      </g>
      <g
         transform="translate(46.1499,28.4122)"
         id="g102">
        <path
           inkscape:connector-curvature="0"
           id="path104"
           style="fill:#ffffff;fill-opacity:1;fill-rule:nonzero;stroke:none"
           d="M 0,0 -3.009,-5.616 1.534,-8.05 1.534,0 0,0 z" />
      </g>
      <g
         transform="translate(38.5595,30.0106)"
         id="g106">
        <path
           inkscape:connector-curvature="0"
           id="path108"
           style="fill:#ffffff;fill-opacity:1;fill-rule:nonzero;stroke:none"
           d="m 0,0 c 0.589,0 1.066,-0.477 1.066,-1.066 0,-0.588 -0.477,-1.065 -1.066,-1.065 -0.589,0 -1.066,0.477 -1.066,1.065 C -1.066,-0.477 -0.589,0 0,0 m 0,-6.373 c 0,0 2.731,3.2 2.731,4.708 0,1.508 -1.223,2.731 -2.731,2.731 -1.508,0 -2.73,-1.223 -2.73,-2.731 0,-1.508 2.73,-4.708 2.73,-4.708" />
      </g>
    </g>
  </g>
</svg>
