<?xml version="1.0" encoding="UTF-8" standalone="no"?>
<!-- Created with Inkscape (http://www.inkscape.org/) -->

<svg
   xmlns:dc="http://purl.org/dc/elements/1.1/"
   xmlns:cc="http://creativecommons.org/ns#"
   xmlns:rdf="http://www.w3.org/1999/02/22-rdf-syntax-ns#"
   xmlns:svg="http://www.w3.org/2000/svg"
   xmlns="http://www.w3.org/2000/svg"
   xmlns:sodipodi="http://sodipodi.sourceforge.net/DTD/sodipodi-0.dtd"
   xmlns:inkscape="http://www.inkscape.org/namespaces/inkscape"
   width="45"
   height="45"
   id="svg3217"
   version="1.1"
   inkscape:version="0.48.4 r9939"
   sodipodi:docname="Novo documento 2">
  <defs
     id="defs3219" />
  <sodipodi:namedview
     id="base"
     pagecolor="#ffffff"
     bordercolor="#666666"
     borderopacity="1.0"
     inkscape:pageopacity="0.0"
     inkscape:pageshadow="2"
     inkscape:zoom="4.0619356"
     inkscape:cx="15.162093"
     inkscape:cy="23.343565"
     inkscape:document-units="px"
     inkscape:current-layer="layer1"
     showgrid="false"
     inkscape:window-width="770"
     inkscape:window-height="716"
     inkscape:window-x="595"
     inkscape:window-y="336"
     inkscape:window-maximized="0" />
  <metadata
     id="metadata3222">
    <rdf:RDF>
      <cc:Work
         rdf:about="">
        <dc:format>image/svg+xml</dc:format>
        <dc:type
           rdf:resource="http://purl.org/dc/dcmitype/StillImage" />
        <dc:title></dc:title>
      </cc:Work>
    </rdf:RDF>
  </metadata>
  <g
     inkscape:label="Camada 1"
     inkscape:groupmode="layer"
     id="layer1"
     transform="translate(0,-1007.3622)">
    <g
       id="g3164"
       transform="matrix(2.1186441,0,0,-2.1186441,-65.87271,1680.2156)">
      <g
         transform="translate(47.0802,301.0648)"
         id="g110">
        <path
           inkscape:connector-curvature="0"
           id="path112"
           style="fill:#ffffff;fill-opacity:1;fill-rule:nonzero;stroke:none"
           d="m 0,0 c -3.541,-2.572 -8.492,-1.78 -11.059,1.769 -2.566,3.55 -1.775,8.512 1.766,11.084 3.139,2.279 7.384,1.916 10.096,-0.667 -3.006,2.972 -7.801,3.421 -11.333,0.855 -3.934,-2.857 -4.812,-8.369 -1.961,-12.312 2.85,-3.943 8.35,-4.823 12.285,-1.966 3.532,2.565 4.6,7.27 2.718,11.059 C 4.116,6.436 3.138,2.279 0,0" />
      </g>
    </g>
  </g>
</svg>
