<?xml version="1.0" encoding="UTF-8" standalone="no"?>
<!-- Created with Inkscape (http://www.inkscape.org/) -->

<svg
   xmlns:dc="http://purl.org/dc/elements/1.1/"
   xmlns:cc="http://creativecommons.org/ns#"
   xmlns:rdf="http://www.w3.org/1999/02/22-rdf-syntax-ns#"
   xmlns:svg="http://www.w3.org/2000/svg"
   xmlns="http://www.w3.org/2000/svg"
   xmlns:sodipodi="http://sodipodi.sourceforge.net/DTD/sodipodi-0.dtd"
   xmlns:inkscape="http://www.inkscape.org/namespaces/inkscape"
   id="svg2"
   version="1.1"
   inkscape:version="0.91 r13725"
   xml:space="preserve"
   width="575.76251"
   height="463.89999"
   viewBox="0 0 575.76251 463.89999"
   sodipodi:docname="gallery-icon-active.svg"><metadata
     id="metadata8"><rdf:RDF><cc:Work
         rdf:about=""><dc:format>image/svg+xml</dc:format><dc:type
           rdf:resource="http://purl.org/dc/dcmitype/StillImage" /><dc:title></dc:title></cc:Work></rdf:RDF></metadata><defs
     id="defs6" /><sodipodi:namedview
     pagecolor="#ffffff"
     bordercolor="#666666"
     borderopacity="1"
     objecttolerance="10"
     gridtolerance="10"
     guidetolerance="10"
     inkscape:pageopacity="0"
     inkscape:pageshadow="2"
     inkscape:window-width="640"
     inkscape:window-height="480"
     id="namedview4"
     showgrid="false"
     inkscape:zoom="0.50873034"
     inkscape:cx="287.88126"
     inkscape:cy="231.95"
     inkscape:window-x="0"
     inkscape:window-y="29"
     inkscape:window-maximized="0"
     inkscape:current-layer="g10" /><g
     id="g10"
     inkscape:groupmode="layer"
     inkscape:label="ink_ext_XXXXXX"
     transform="matrix(1.25,0,0,-1.25,0,463.9)"><g
       id="g12"
       transform="scale(0.1,0.1)"><path
         d="m 1945.83,3532.74 c 0,-122.76 0,-243.11 0,-365.63 268.45,0 533.58,0 799.99,0 0,123.5 0,243.71 0,365.63 -266.65,0 -529.22,0 -799.99,0 z M 2375.55,194.801 c 710.52,1.23 1283.6,575.961 1283.02,1286.729 -0.58,708.84 -577.15,1281.76 -1288.73,1280.54 -705.85,-1.2 -1280.26,-579.08 -1278.51,-1286.23 1.76,-707.281 578.16,-1282.25 1284.22,-1281.039 z M 2353.67,0 C 1680.39,0 1007.11,0 333.82,0.0117188 147.777,0.0117188 0.445313,147.648 0.214844,335.609 -0.199219,670.578 0.113281,1005.56 0.113281,1340.53 c 0.003907,454.97 0,909.94 0.003907,1364.9 0,173.94 95.863312,279.5 270.655812,281.8 66.782,0.88 107.235,21.13 129.774,79.64 38.172,99.09 106.789,126.3 212.258,122.94 88.535,-2.82 150.05,-19.25 181.82,-104.95 29.684,-80.09 85.73,-106.11 170.289,-97.1 44.376,4.73 70.496,14.78 93.136,54.95 117.75,209.01 239.55,415.74 358.06,624.33 17.78,31.29 36.57,44.18 73.61,44.1 583.29,-1.21 1166.58,-1.23 1749.87,0.06 37.21,0.08 55.87,-13.2 73.49,-44.16 121.14,-212.85 244.74,-424.3 365.93,-637.11 16.99,-29.84 37.36,-36.63 70.2,-41.65 96.05,-14.68 159.38,18.83 193.37,109.34 27.97,74.45 82.99,85.67 158.72,91.87 117.92,9.65 193.24,-26.03 235.3,-135.58 18.51,-48.24 51.74,-67.48 107.13,-65.93 86.75,2.42 136.03,-42.74 152.24,-128.22 7.1,-37.39 9.57,-76.16 9.6,-114.31 0.52,-806.61 1.11,-1613.22 -0.9,-2419.821 C 4604.5,256.648 4593.1,185.77 4574.52,119.238 4549.3,28.8906 4501.73,0.0507813 4408.52,0.0390625 3723.57,-0.0195313 3038.62,0.0117188 2353.67,0"
         style="fill:#231f20;fill-opacity:1;fill-rule:nonzero;stroke:none"
         id="path14"
         inkscape:connector-curvature="0" /><path
         d="m 2372.35,709.359 c 424.09,-2.57 769,341.041 773.49,765.861 4.62,437.3 -359.97,772.56 -767.53,773.81 -409.55,1.26 -772.06,-329.2 -772.88,-763.12 -0.81,-428.85 338.04,-773.949 766.92,-776.551 z M 1311.32,1491.31 c 6.65,588.17 488.25,1056.65 1080.19,1050.76 583.39,-5.8 1053.26,-489.77 1047.03,-1078.45 -6.19,-584.39 -490.08,-1055.491 -1077.19,-1048.729 -585.1,6.73 -1056.66,490.14 -1050.03,1076.419"
         style="fill:#231f20;fill-opacity:1;fill-rule:nonzero;stroke:none"
         id="path16"
         inkscape:connector-curvature="0" /></g></g></svg>