<?xml version="1.0" encoding="UTF-8" standalone="no"?>
<!-- Created with Inkscape (http://www.inkscape.org/) -->

<svg
   xmlns:dc="http://purl.org/dc/elements/1.1/"
   xmlns:cc="http://creativecommons.org/ns#"
   xmlns:rdf="http://www.w3.org/1999/02/22-rdf-syntax-ns#"
   xmlns:svg="http://www.w3.org/2000/svg"
   xmlns="http://www.w3.org/2000/svg"
   xmlns:sodipodi="http://sodipodi.sourceforge.net/DTD/sodipodi-0.dtd"
   xmlns:inkscape="http://www.inkscape.org/namespaces/inkscape"
   width="45"
   height="45"
   id="svg3217"
   version="1.1"
   inkscape:version="0.48.4 r9939"
   sodipodi:docname="icone-noticias-ativo.svg">
  <defs
     id="defs3219" />
  <sodipodi:namedview
     id="base"
     pagecolor="#ffffff"
     bordercolor="#666666"
     borderopacity="1.0"
     inkscape:pageopacity="0.0"
     inkscape:pageshadow="2"
     inkscape:zoom="5.7444444"
     inkscape:cx="21.557227"
     inkscape:cy="20.904908"
     inkscape:document-units="px"
     inkscape:current-layer="layer1"
     showgrid="false"
     inkscape:window-width="770"
     inkscape:window-height="716"
     inkscape:window-x="595"
     inkscape:window-y="336"
     inkscape:window-maximized="0" />
  <metadata
     id="metadata3222">
    <rdf:RDF>
      <cc:Work
         rdf:about="">
        <dc:format>image/svg+xml</dc:format>
        <dc:type
           rdf:resource="http://purl.org/dc/dcmitype/StillImage" />
        <dc:title></dc:title>
      </cc:Work>
    </rdf:RDF>
  </metadata>
  <g
     inkscape:label="Camada 1"
     inkscape:groupmode="layer"
     id="layer1"
     transform="translate(0,-1007.3622)">
    <g
       id="g3179"
       transform="matrix(2.1186441,0,0,-2.1186441,-65.967374,1426.7456)"
       style="fill:#000000">
      <g
         transform="translate(47.1616,186.2722)"
         id="g62"
         style="fill:#000000">
        <path
           inkscape:connector-curvature="0"
           id="path64"
           style="fill:#000000;fill-opacity:1;fill-rule:nonzero;stroke:none"
           d="m 0,0 c -0.119,0.146 -0.294,0.229 -0.481,0.229 l -1.621,0 c -0.339,0 -0.616,-0.277 -0.616,-0.618 l 0,-1.621 c 0,-0.342 0.277,-0.618 0.616,-0.618 l 3.776,0 0,0.347 c 0,0.143 -0.048,0.28 -0.137,0.39 L 0,0 m -10.041,4.103 c -0.282,0.417 -0.493,0.88 -0.633,1.362 -0.131,0.464 -0.164,0.948 -0.089,1.421 0.053,0.369 0.211,0.714 0.454,0.996 l 3.03,-2.595 1.044,0.761 C -6.36,6.22 -6.378,6.446 -6.28,6.637 -6.137,6.913 -5.798,7.023 -5.518,6.88 -5.242,6.738 -5.132,6.399 -5.275,6.122 -5.417,5.846 -5.759,5.736 -6.036,5.875 L -6.624,4.728 -3.595,2.132 C -3.767,1.93 -3.981,1.763 -4.219,1.644 l 4.347,0 c 0.184,0 0.359,-0.083 0.475,-0.226 l 3.292,-4.049 c 0.089,-0.11 0.14,-0.247 0.14,-0.39 l 0,-3.55 c 0,-0.339 -0.28,-0.615 -0.619,-0.615 l -1.153,0 0,0.57 c 0,1.365 -1.104,2.468 -2.469,2.468 -1.361,0 -2.467,-1.103 -2.467,-2.468 l 0,-0.57 -5.441,0 0,0.57 c 0,1.365 -1.107,2.468 -2.468,2.468 -1.365,0 -2.468,-1.103 -2.468,-2.468 l 0,-0.57 -1.177,0 c -0.342,0 -0.618,0.276 -0.618,0.615 l 0,7.6 c 0,0.339 0.276,0.615 0.618,0.615 l 4.54,0 c 0.155,0.473 0.529,0.842 1.002,0.993 -0.059,0.045 -0.116,0.095 -0.172,0.143 -0.452,0.387 -0.851,0.833 -1.184,1.323" />
      </g>
      <g
         transform="translate(49.2341,179.6567)"
         id="g66"
         style="fill:#000000">
        <path
           inkscape:connector-curvature="0"
           id="path68"
           style="fill:#000000;fill-opacity:1;fill-rule:nonzero;stroke:none"
           d="m 0,0 c 0,1.258 -1.02,2.277 -2.278,2.277 -1.257,0 -2.277,-1.019 -2.277,-2.277 0,-1.258 1.02,-2.278 2.277,-2.278 C -1.02,-2.278 0,-1.258 0,0 m -1.564,0 c 0,-0.396 -0.321,-0.714 -0.714,-0.714 -0.395,0 -0.713,0.318 -0.713,0.714 0,0.392 0.318,0.714 0.713,0.714 0.393,0 0.714,-0.322 0.714,-0.714" />
      </g>
      <g
         transform="translate(38.8573,179.6567)"
         id="g70"
         style="fill:#000000">
        <path
           inkscape:connector-curvature="0"
           id="path72"
           style="fill:#000000;fill-opacity:1;fill-rule:nonzero;stroke:none"
           d="m 0,0 c 0,1.258 -1.02,2.277 -2.278,2.277 -1.257,0 -2.277,-1.019 -2.277,-2.277 0,-1.258 1.02,-2.278 2.277,-2.278 C -1.02,-2.278 0,-1.258 0,0 m -1.564,0 c 0,-0.396 -0.321,-0.714 -0.714,-0.714 -0.395,0 -0.713,0.318 -0.713,0.714 0,0.392 0.318,0.714 0.713,0.714 0.393,0 0.714,-0.322 0.714,-0.714" />
      </g>
      <g
         transform="translate(43.689,191.6541)"
         id="g74"
         style="fill:#000000">
        <path
           inkscape:connector-curvature="0"
           id="path76"
           style="fill:#000000;fill-opacity:1;fill-rule:nonzero;stroke:none"
           d="m 0,0 c -0.074,-0.178 -0.282,-0.262 -0.461,-0.181 -0.181,0.077 -0.265,0.282 -0.184,0.463 0.392,0.913 -0.03,1.978 -0.943,2.37 -0.547,0.238 -1.175,0.19 -1.68,-0.128 -0.163,-0.104 -0.38,-0.056 -0.485,0.111 -0.104,0.166 -0.056,0.383 0.111,0.487 0.701,0.44 1.572,0.505 2.33,0.178 C -0.036,2.753 0.55,1.275 0,0" />
      </g>
      <g
         transform="translate(45.6364,190.8185)"
         id="g78"
         style="fill:#000000">
        <path
           inkscape:connector-curvature="0"
           id="path80"
           style="fill:#000000;fill-opacity:1;fill-rule:nonzero;stroke:none"
           d="m 0,0 c -0.08,-0.181 -0.286,-0.264 -0.467,-0.184 -0.178,0.074 -0.259,0.282 -0.184,0.46 0.859,1.993 -0.057,4.3 -2.046,5.159 -1.189,0.512 -2.551,0.405 -3.645,-0.282 -0.167,-0.104 -0.384,-0.054 -0.488,0.11 -0.104,0.163 -0.053,0.38 0.113,0.484 1.288,0.815 2.899,0.94 4.3,0.334 C -0.071,5.069 1.011,2.346 0,0" />
      </g>
    </g>
  </g>
</svg>
