<?xml version="1.0" encoding="UTF-8" standalone="no"?>
<!-- Created with Inkscape (http://www.inkscape.org/) -->

<svg
   xmlns:dc="http://purl.org/dc/elements/1.1/"
   xmlns:cc="http://creativecommons.org/ns#"
   xmlns:rdf="http://www.w3.org/1999/02/22-rdf-syntax-ns#"
   xmlns:svg="http://www.w3.org/2000/svg"
   xmlns="http://www.w3.org/2000/svg"
   xmlns:sodipodi="http://sodipodi.sourceforge.net/DTD/sodipodi-0.dtd"
   xmlns:inkscape="http://www.inkscape.org/namespaces/inkscape"
   id="svg2"
   version="1.1"
   inkscape:version="0.91 r13725"
   xml:space="preserve"
   width="702.5"
   height="547.5"
   viewBox="0 0 702.5 547.5"
   sodipodi:docname="logo.svg"><metadata
     id="metadata8"><rdf:RDF><cc:Work
         rdf:about=""><dc:format>image/svg+xml</dc:format><dc:type
           rdf:resource="http://purl.org/dc/dcmitype/StillImage" /><dc:title></dc:title></cc:Work></rdf:RDF></metadata><defs
     id="defs6"><clipPath
       clipPathUnits="userSpaceOnUse"
       id="clipPath16"><path
         d="M 0,438 562,438 562,0 0,0 0,438 Z"
         id="path18"
         inkscape:connector-curvature="0" /></clipPath></defs><sodipodi:namedview
     pagecolor="#ffffff"
     bordercolor="#666666"
     borderopacity="1"
     objecttolerance="10"
     gridtolerance="10"
     guidetolerance="10"
     inkscape:pageopacity="0"
     inkscape:pageshadow="2"
     inkscape:window-width="640"
     inkscape:window-height="480"
     id="namedview4"
     showgrid="false"
     inkscape:zoom="0.43105023"
     inkscape:cx="351.25"
     inkscape:cy="273.75"
     inkscape:window-x="0"
     inkscape:window-y="29"
     inkscape:window-maximized="0"
     inkscape:current-layer="g10" /><g
     id="g10"
     inkscape:groupmode="layer"
     inkscape:label="Marca Virada Cultural BH"
     transform="matrix(1.25,0,0,-1.25,0,547.5)"><g
       id="g12"><g
         id="g14"
         clip-path="url(#clipPath16)"><g
           id="g20"
           transform="translate(183.1719,27.8145)"><path
             d="m 0,0 0,-3.355 c 0,-4.041 -2.147,-6.348 -6.287,-6.348 -4.141,0 -6.286,2.307 -6.286,6.348 l 0,13.131 c 0,4.042 2.145,6.35 6.286,6.35 4.14,0 6.287,-2.308 6.287,-6.35 l 0,-2.453 -3.985,0 0,2.706 c 0,1.804 -0.845,2.489 -2.189,2.489 -1.341,0 -2.184,-0.685 -2.184,-2.489 l 0,-13.635 c 0,-1.804 0.843,-2.454 2.184,-2.454 1.344,0 2.189,0.65 2.189,2.454 L -3.985,0 0,0 Z"
             style="fill:#231f20;fill-opacity:1;fill-rule:nonzero;stroke:none"
             id="path22"
             inkscape:connector-curvature="0" /></g><g
           id="g24"
           transform="translate(190.8379,43.6494)"><path
             d="m 0,0 0,-19.478 c 0,-1.803 0.843,-2.453 2.186,-2.453 1.341,0 2.184,0.65 2.184,2.453 l 0,19.478 3.986,0 0,-19.226 c 0,-4.039 -2.145,-6.347 -6.284,-6.347 -4.141,0 -6.29,2.308 -6.29,6.347 L -4.218,0 0,0 Z"
             style="fill:#231f20;fill-opacity:1;fill-rule:nonzero;stroke:none"
             id="path26"
             inkscape:connector-curvature="0" /></g><g
           id="g28"
           transform="translate(203.1421,43.6494)"><path
             d="m 0,0 4.218,0 0,-21.644 6.939,0 0,-3.605 L 0,-25.249 0,0 Z"
             style="fill:#231f20;fill-opacity:1;fill-rule:nonzero;stroke:none"
             id="path30"
             inkscape:connector-curvature="0" /></g><g
           id="g32"
           transform="translate(214.0669,43.6494)"><path
             d="m 0,0 13.035,0 0,-3.606 -4.409,0 0,-21.643 -4.216,0 0,21.643 -4.41,0 L 0,0 Z"
             style="fill:#231f20;fill-opacity:1;fill-rule:nonzero;stroke:none"
             id="path34"
             inkscape:connector-curvature="0" /></g><g
           id="g36"
           transform="translate(234.04,43.6494)"><path
             d="m 0,0 0,-19.478 c 0,-1.803 0.841,-2.453 2.184,-2.453 1.341,0 2.186,0.65 2.186,2.453 l 0,19.478 3.986,0 0,-19.226 c 0,-4.039 -2.147,-6.347 -6.287,-6.347 -4.14,0 -6.287,2.308 -6.287,6.347 L -4.218,0 0,0 Z"
             style="fill:#231f20;fill-opacity:1;fill-rule:nonzero;stroke:none"
             id="path38"
             inkscape:connector-curvature="0" /></g><g
           id="g40"
           transform="translate(250.5591,40.043)"><path
             d="m 0,0 0,-7.756 1.65,0 c 1.572,0 2.53,0.65 2.53,2.671 l 0,2.488 C 4.18,-0.794 3.527,0 2.034,0 L 0,0 Z m 4.603,-21.643 c -0.231,0.65 -0.385,1.045 -0.385,3.104 l 0,3.967 c 0,2.343 -0.843,3.211 -2.76,3.211 l -1.458,0 0,-10.282 -4.217,0 0,25.249 6.364,0 c 4.371,0 6.25,-1.909 6.25,-5.805 l 0,-1.984 c 0,-2.598 -0.881,-4.294 -2.76,-5.123 2.108,-0.831 2.799,-2.743 2.799,-5.375 l 0,-3.895 c 0,-1.227 0.037,-2.129 0.458,-3.067 l -4.291,0 z"
             style="fill:#231f20;fill-opacity:1;fill-rule:nonzero;stroke:none"
             id="path42"
             inkscape:connector-curvature="0" /></g><g
           id="g44"
           transform="translate(266.8506,26.4072)"><path
             d="M 0,0 4.065,0 2.032,12.771 0,0 Z m 9.624,-8.007 -4.254,0 -0.728,4.58 -5.178,0 -0.728,-4.58 -3.873,0 4.296,25.249 6.171,0 4.294,-25.249 z"
             style="fill:#231f20;fill-opacity:1;fill-rule:nonzero;stroke:none"
             id="path46"
             inkscape:connector-curvature="0" /></g><g
           id="g48"
           transform="translate(279.501,43.6494)"><path
             d="m 0,0 4.22,0 0,-21.644 6.937,0 0,-3.605 L 0,-25.249 0,0 Z"
             style="fill:#231f20;fill-opacity:1;fill-rule:nonzero;stroke:none"
             id="path50"
             inkscape:connector-curvature="0" /></g><g
           id="g52"
           transform="translate(304.8008,40.043)"><path
             d="m 0,0 0,-18.037 2.378,0 c 1.343,0 2.149,0.65 2.149,2.453 l 0,13.132 C 4.527,-0.646 3.721,0 2.378,0 L 0,0 Z m -4.215,3.606 6.67,0 c 4.219,0 6.286,-2.2 6.286,-6.239 l 0,-12.77 c 0,-4.038 -2.067,-6.24 -6.286,-6.24 l -6.67,0 0,25.249 z"
             style="fill:#231f20;fill-opacity:1;fill-rule:nonzero;stroke:none"
             id="path54"
             inkscape:connector-curvature="0" /></g><g
           id="g56"
           transform="translate(321.5137,33.0098)"><path
             d="m 0,0 5.789,0 0,-3.607 -5.789,0 0,-7.397 7.284,0 0,-3.605 -11.499,0 0,25.249 11.499,0 0,-3.607 L 0,7.033 0,0 Z"
             style="fill:#231f20;fill-opacity:1;fill-rule:nonzero;stroke:none"
             id="path58"
             inkscape:connector-curvature="0" /></g><g
           id="g60"
           transform="translate(343.709,29.7617)"><path
             d="m 0,0 0,-7.756 2.417,0 c 1.419,0 2.185,0.614 2.185,2.491 l 0,2.2 C 4.602,-0.721 3.797,0 1.88,0 L 0,0 Z m 0,10.281 0,-6.673 1.648,0 c 1.573,0 2.532,0.651 2.532,2.669 l 0,1.408 c 0,1.802 -0.653,2.596 -2.147,2.596 l -2.033,0 z m 8.398,-2.199 0,-0.902 c 0,-2.598 -0.843,-4.256 -2.722,-5.088 2.261,-0.826 3.142,-2.74 3.142,-5.41 l 0,-2.056 c 0,-3.897 -2.186,-5.987 -6.401,-5.987 l -6.632,0 0,25.249 6.361,0 c 4.373,0 6.252,-1.909 6.252,-5.806"
             style="fill:#231f20;fill-opacity:1;fill-rule:nonzero;stroke:none"
             id="path62"
             inkscape:connector-curvature="0" /></g><g
           id="g64"
           transform="translate(360.3457,33.0098)"><path
             d="m 0,0 5.788,0 0,-3.607 -5.788,0 0,-7.397 7.284,0 0,-3.605 -11.5,0 0,25.249 11.5,0 0,-3.607 L 0,7.033 0,0 Z"
             style="fill:#231f20;fill-opacity:1;fill-rule:nonzero;stroke:none"
             id="path66"
             inkscape:connector-curvature="0" /></g><g
           id="g68"
           transform="translate(371.3076,43.6494)"><path
             d="m 0,0 4.218,0 0,-21.644 6.939,0 0,-3.605 L 0,-25.249 0,0 Z"
             style="fill:#231f20;fill-opacity:1;fill-rule:nonzero;stroke:none"
             id="path70"
             inkscape:connector-curvature="0" /></g><g
           id="g72"
           transform="translate(389.2461,24.208)"><path
             d="m 0,0 c 0,-1.804 0.846,-2.489 2.186,-2.489 1.344,0 2.185,0.685 2.185,2.489 l 0,13.636 c 0,1.803 -0.841,2.488 -2.185,2.488 C 0.846,16.124 0,15.439 0,13.636 L 0,0 Z m -4.217,13.383 c 0,4.042 2.264,6.349 6.403,6.349 4.143,0 6.404,-2.307 6.404,-6.349 l 0,-13.132 c 0,-4.04 -2.261,-6.348 -6.404,-6.348 -4.139,0 -6.403,2.308 -6.403,6.348 l 0,13.132 z"
             style="fill:#231f20;fill-opacity:1;fill-rule:nonzero;stroke:none"
             id="path74"
             inkscape:connector-curvature="0" /></g><g
           id="g76"
           transform="translate(412.8633,18.4004)"><path
             d="m 0,0 -4.219,0 0,25.249 4.219,0 0,-10.822 4.793,0 0,10.822 4.291,0 0,-25.249 -4.291,0 0,10.822 L 0,10.822 0,0 Z"
             style="fill:#231f20;fill-opacity:1;fill-rule:nonzero;stroke:none"
             id="path78"
             inkscape:connector-curvature="0" /></g><g
           id="g80"
           transform="translate(429.959,24.208)"><path
             d="m 0,0 c 0,-1.804 0.842,-2.489 2.186,-2.489 1.343,0 2.183,0.685 2.183,2.489 l 0,13.636 c 0,1.803 -0.84,2.488 -2.183,2.488 C 0.842,16.124 0,15.439 0,13.636 L 0,0 Z m -4.22,13.383 c 0,4.042 2.265,6.349 6.406,6.349 4.139,0 6.402,-2.307 6.402,-6.349 l 0,-13.132 c 0,-4.04 -2.263,-6.348 -6.402,-6.348 -4.141,0 -6.406,2.308 -6.406,6.348 l 0,13.132 z"
             style="fill:#231f20;fill-opacity:1;fill-rule:nonzero;stroke:none"
             id="path82"
             inkscape:connector-curvature="0" /></g><g
           id="g84"
           transform="translate(446.5576,40.043)"><path
             d="m 0,0 0,-7.756 1.649,0 c 1.573,0 2.53,0.65 2.53,2.671 l 0,2.488 C 4.179,-0.794 3.524,0 2.032,0 L 0,0 Z m 4.599,-21.643 c -0.227,0.65 -0.381,1.045 -0.381,3.104 l 0,3.967 c 0,2.343 -0.846,3.211 -2.764,3.211 l -1.454,0 0,-10.282 -4.218,0 0,25.249 6.365,0 c 4.371,0 6.248,-1.909 6.248,-5.805 l 0,-1.984 c 0,-2.598 -0.88,-4.294 -2.761,-5.123 2.109,-0.831 2.8,-2.743 2.8,-5.375 l 0,-3.895 c 0,-1.227 0.036,-2.129 0.461,-3.067 l -4.296,0 z"
             style="fill:#231f20;fill-opacity:1;fill-rule:nonzero;stroke:none"
             id="path86"
             inkscape:connector-curvature="0" /></g><path
           d="m 458.825,43.649 4.215,0 0,-25.249 -4.215,0 0,25.249 z"
           style="fill:#231f20;fill-opacity:1;fill-rule:nonzero;stroke:none"
           id="path88"
           inkscape:connector-curvature="0" /><g
           id="g90"
           transform="translate(478.875,43.6494)"><path
             d="m 0,0 0,-3.532 -8.016,-18.112 8.016,0 0,-3.605 -12.348,0 0,3.533 8.014,18.11 -7.631,0 0,3.606 L 0,0 Z"
             style="fill:#231f20;fill-opacity:1;fill-rule:nonzero;stroke:none"
             id="path92"
             inkscape:connector-curvature="0" /></g><g
           id="g94"
           transform="translate(486.3086,24.208)"><path
             d="m 0,0 c 0,-1.804 0.842,-2.489 2.186,-2.489 1.341,0 2.183,0.685 2.183,2.489 l 0,13.636 c 0,1.803 -0.842,2.488 -2.183,2.488 C 0.842,16.124 0,15.439 0,13.636 L 0,0 Z m -4.219,13.383 c 0,4.042 2.262,6.349 6.405,6.349 4.139,0 6.398,-2.307 6.398,-6.349 l 0,-13.132 c 0,-4.04 -2.259,-6.348 -6.398,-6.348 -4.143,0 -6.405,2.308 -6.405,6.348 l 0,13.132 z"
             style="fill:#231f20;fill-opacity:1;fill-rule:nonzero;stroke:none"
             id="path96"
             inkscape:connector-curvature="0" /></g><g
           id="g98"
           transform="translate(502.4443,36.6875)"><path
             d="m 0,0 0,-18.287 -3.794,0 0,25.249 5.291,0 4.332,-15.112 0,15.112 3.758,0 0,-25.249 -4.333,0 L 0,0 Z"
             style="fill:#231f20;fill-opacity:1;fill-rule:nonzero;stroke:none"
             id="path100"
             inkscape:connector-curvature="0" /></g><g
           id="g102"
           transform="translate(514.9004,43.6494)"><path
             d="m 0,0 13.037,0 0,-3.606 -4.41,0 0,-21.643 -4.217,0 0,21.643 -4.41,0 L 0,0 Z"
             style="fill:#231f20;fill-opacity:1;fill-rule:nonzero;stroke:none"
             id="path104"
             inkscape:connector-curvature="0" /></g><g
           id="g106"
           transform="translate(535.0645,33.0098)"><path
             d="m 0,0 5.791,0 0,-3.607 -5.791,0 0,-7.397 7.285,0 0,-3.605 -11.5,0 0,25.249 11.5,0 0,-3.607 L 0,7.033 0,0 Z"
             style="fill:#231f20;fill-opacity:1;fill-rule:nonzero;stroke:none"
             id="path108"
             inkscape:connector-curvature="0" /></g><g
           id="g110"
           transform="translate(169.3325,58.8232)"><path
             d="m 0,0 0,66.724 c 0,1.483 -0.584,2.858 -1.736,4.086 -1.178,1.246 -2.539,1.877 -4.05,1.877 l -4.798,0 0,18.775 17.855,0 c 1.487,0 3.093,-0.33 4.771,-0.979 1.689,-0.654 3.238,-1.566 4.603,-2.711 1.356,-1.139 2.484,-2.46 3.356,-3.93 0.826,-1.391 1.243,-2.817 1.243,-4.238 l 0,-4.374 2.259,0 0.342,0.621 c 1.265,2.299 2.617,4.593 4.021,6.818 1.348,2.134 2.997,4.064 4.896,5.74 1.887,1.664 4.113,3.016 6.62,4.02 2.494,0.996 5.579,1.502 9.171,1.502 0.778,0 1.548,-0.03 2.291,-0.086 0.414,-0.032 0.841,-0.074 1.275,-0.125 l 0,-22.58 c -0.719,0.089 -1.469,0.132 -2.242,0.132 l -3.617,0 c -4.977,0 -9.063,-0.718 -12.143,-2.137 C 31.009,67.706 28.542,65.804 26.782,63.479 25.034,61.17 23.835,58.58 23.215,55.782 22.61,53.071 22.304,50.34 22.304,47.669 L 22.304,0 0,0 Z"
             style="fill:#1d1d1b;fill-opacity:1;fill-rule:nonzero;stroke:none"
             id="path112"
             inkscape:connector-curvature="0" /></g><g
           id="g114"
           transform="translate(270.6128,135.2832)"><path
             d="m 0,0 c -5.032,0 -9.167,-1.025 -12.288,-3.047 -3.095,-2.008 -5.516,-4.555 -7.192,-7.57 -1.649,-2.971 -2.792,-6.254 -3.398,-9.762 -0.6,-3.433 -0.902,-6.717 -0.902,-9.762 0,-3.166 0.302,-6.51 0.902,-9.943 0.606,-3.508 1.749,-6.793 3.398,-9.76 1.682,-3.028 4.108,-5.549 7.205,-7.493 3.111,-1.954 7.242,-2.945 12.275,-2.945 4.913,0 9.01,0.989 12.178,2.943 3.16,1.942 5.617,4.464 7.303,7.495 1.644,2.957 2.787,6.242 3.398,9.76 0.598,3.451 0.901,6.796 0.901,9.943 0,3.026 -0.303,6.31 -0.901,9.762 -0.611,3.516 -1.754,6.801 -3.4,9.762 C 17.803,-7.6 15.35,-5.049 12.193,-3.041 9.011,-1.023 4.912,0 0,0 m -3.176,-78.932 c -6.184,0 -11.983,0.967 -17.238,2.876 -5.218,1.896 -9.848,4.863 -13.76,8.824 -3.916,3.964 -7.028,9.075 -9.251,15.187 -2.231,6.144 -3.365,13.515 -3.365,21.904 0,8.368 1.304,15.687 3.873,21.755 2.565,6.064 6.03,11.151 10.296,15.12 4.266,3.975 9.26,6.985 14.842,8.947 5.609,1.968 11.59,2.967 17.779,2.967 2.242,0 4.647,-0.291 7.146,-0.862 2.494,-0.575 4.912,-1.391 7.184,-2.424 2.261,-1.032 4.42,-2.284 6.412,-3.719 1.952,-1.416 3.561,-2.93 4.782,-4.498 l 2.137,-2.749 0,10.86 20.188,0 0,-66.828 c 0,-1.372 0.546,-2.695 1.622,-3.926 1.113,-1.277 2.397,-1.929 3.809,-1.929 l 5.154,0 0,-19.003 -19.797,0 c -1.024,0 -2.209,0.27 -3.525,0.803 -1.34,0.542 -2.59,1.313 -3.723,2.297 -1.128,0.978 -2.076,2.16 -2.822,3.51 -0.717,1.295 -1.082,2.748 -1.082,4.32 l 0,2.5 -2.254,0.572 C 22.532,-67.555 18.59,-71.627 13.523,-74.536 8.436,-77.453 2.819,-78.932 -3.176,-78.932"
             style="fill:#1d1d1b;fill-opacity:1;fill-rule:nonzero;stroke:none"
             id="path116"
             inkscape:connector-curvature="0" /></g><g
           id="g118"
           transform="translate(378.5225,135.7852)"><path
             d="m 0,0 c -7.783,0 -13.544,-2.472 -17.12,-7.35 -3.485,-4.755 -5.252,-11.446 -5.252,-19.885 0,-5.928 0.643,-10.867 1.912,-14.681 1.28,-3.857 2.995,-6.969 5.101,-9.253 2.118,-2.307 4.536,-3.944 7.196,-4.866 2.578,-0.899 5.15,-1.354 7.635,-1.354 1.394,0 3.269,0.262 5.73,0.801 2.517,0.551 5.06,1.841 7.555,3.838 2.485,1.996 4.644,4.967 6.42,8.832 1.767,3.854 2.661,9.063 2.661,15.482 0,9.62 -2.087,16.832 -6.204,21.434 C 11.473,-2.355 6.213,0 0,0 m 35.987,-77.018 c -3.838,0 -7.134,0.94 -9.8,2.788 -2.571,1.781 -3.819,4.082 -3.819,7.027 l 0,7.341 -2.222,0 -0.35,-0.554 c -0.949,-1.496 -2.065,-3.156 -3.32,-4.925 -1.229,-1.737 -2.842,-3.418 -4.803,-4.995 -1.945,-1.569 -4.356,-2.89 -7.161,-3.926 -2.794,-1.031 -6.152,-1.554 -9.983,-1.554 -7.051,0 -13.148,1.366 -18.119,4.056 -4.989,2.699 -9.158,6.361 -12.389,10.883 -3.255,4.551 -5.658,9.788 -7.144,15.57 -1.498,5.821 -2.258,11.959 -2.258,18.242 0,4.69 0.673,9.764 1.996,15.079 1.313,5.271 3.512,10.197 6.54,14.638 3,4.407 6.996,8.098 11.882,10.969 4.845,2.848 10.929,4.293 18.081,4.293 6.013,0 11.231,-1.082 15.506,-3.217 4.227,-2.106 7.619,-5.435 10.079,-9.891 l 0.339,-0.615 2.269,0 0,31.181 c 0,2.482 0.389,4.739 1.157,6.708 0.762,1.963 1.781,3.625 3.023,4.941 1.232,1.303 2.643,2.307 4.197,2.985 1.541,0.672 3.069,1.013 4.537,1.013 l 19.972,0 0,-18.255 -4.271,0 c -1.616,0 -3.089,-0.635 -4.373,-1.885 -1.286,-1.252 -1.94,-2.683 -1.94,-4.254 l 0,-79.42 c 0,-1.48 0.727,-2.869 2.158,-4.125 1.397,-1.222 2.853,-1.844 4.333,-1.844 l 4.093,0 0,-18.254 -18.21,0 z"
             style="fill:#1d1d1b;fill-opacity:1;fill-rule:nonzero;stroke:none"
             id="path120"
             inkscape:connector-curvature="0" /></g><g
           id="g122"
           transform="translate(482.6592,135.2832)"><path
             d="m 0,0 c -5.03,0 -9.165,-1.025 -12.29,-3.047 -3.094,-2.01 -5.514,-4.555 -7.189,-7.57 -1.65,-2.971 -2.793,-6.254 -3.4,-9.764 -0.597,-3.431 -0.899,-6.717 -0.899,-9.76 0,-3.162 0.302,-6.508 0.9,-9.943 0.606,-3.508 1.749,-6.793 3.397,-9.76 1.685,-3.028 4.108,-5.548 7.207,-7.491 3.11,-1.956 7.241,-2.947 12.274,-2.947 4.913,0 9.013,0.989 12.18,2.943 3.16,1.942 5.618,4.464 7.301,7.495 1.645,2.955 2.789,6.24 3.401,9.76 0.596,3.456 0.9,6.801 0.9,9.943 0,3.021 -0.304,6.306 -0.9,9.762 -0.612,3.516 -1.756,6.801 -3.399,9.762 -1.679,3.017 -4.132,5.568 -7.289,7.576 C 9.015,-1.023 4.913,0 0,0 m -3.175,-78.932 c -6.185,0 -11.984,0.967 -17.236,2.876 -5.219,1.894 -9.849,4.863 -13.76,8.824 -3.918,3.962 -7.028,9.072 -9.25,15.186 -2.234,6.144 -3.366,13.513 -3.366,21.905 0,8.37 1.302,15.688 3.872,21.754 2.566,6.063 6.03,11.15 10.293,15.124 4.268,3.97 9.264,6.98 14.846,8.944 5.607,1.968 11.588,2.967 17.776,2.967 2.243,0 4.647,-0.291 7.146,-0.862 2.494,-0.575 4.912,-1.391 7.185,-2.424 2.266,-1.036 4.424,-2.288 6.412,-3.719 1.955,-1.418 3.566,-2.933 4.779,-4.497 l 2.139,-2.755 0,10.865 20.188,0 0,-66.828 c 0,-1.373 0.548,-2.695 1.627,-3.926 1.108,-1.277 2.392,-1.929 3.806,-1.929 l 5.154,0 0,-19.003 -19.798,0 c -1.023,0 -2.209,0.27 -3.524,0.803 -1.342,0.543 -2.594,1.315 -3.725,2.297 -1.126,0.978 -2.075,2.16 -2.822,3.51 -0.717,1.299 -1.081,2.752 -1.081,4.32 l 0,2.5 -2.255,0.572 c -2.697,-5.127 -6.638,-9.199 -11.709,-12.108 -5.086,-2.917 -10.703,-4.396 -16.697,-4.396"
             style="fill:#1d1d1b;fill-opacity:1;fill-rule:nonzero;stroke:none"
             id="path124"
             inkscape:connector-curvature="0" /></g><g
           id="g126"
           transform="translate(143.7139,17.498)"><path
             d="m 0,0 c -3.937,0 -7.18,1.329 -9.914,4.059 -2.732,2.736 -4.06,5.978 -4.06,9.916 0,3.82 1.328,7.007 4.06,9.739 2.731,2.731 5.975,4.059 9.914,4.059 3.824,0 7.01,-1.328 9.739,-4.059 2.732,-2.729 4.059,-5.913 4.059,-9.739 0,-3.94 -1.327,-7.186 -4.057,-9.916 C 7.007,1.328 3.822,0 0,0"
             style="fill:#f7ad04;fill-opacity:1;fill-rule:nonzero;stroke:none"
             id="path128"
             inkscape:connector-curvature="0" /></g><g
           id="g130"
           transform="translate(58.5166,58.8232)"><path
             d="m 0,0 -23.85,68.236 c -0.444,1.292 -1.368,2.414 -2.742,3.329 -1.363,0.899 -2.788,1.356 -4.241,1.356 l -8.49,0 0,18.918 17.444,0 c 2.02,0 3.983,-0.387 5.839,-1.148 1.884,-0.774 3.685,-1.872 5.352,-3.262 1.668,-1.395 3.126,-3.062 4.332,-4.953 1.21,-1.895 2.116,-3.934 2.695,-6.055 l 15.602,-53.963 2.17,0 16.337,53.932 c 0.573,1.994 1.556,3.923 2.926,5.75 1.387,1.845 3.03,3.495 4.888,4.9 1.848,1.399 3.909,2.568 6.126,3.475 2.156,0.877 4.275,1.324 6.295,1.324 l 14.888,0 0,-18.918 -8.856,0 c -1.423,0 -2.883,-0.41 -4.34,-1.216 -1.537,-0.85 -2.549,-1.958 -3.01,-3.294 L 25.153,0 0,0 Z"
             style="fill:#1d1d1b;fill-opacity:1;fill-rule:nonzero;stroke:none"
             id="path132"
             inkscape:connector-curvature="0" /></g><g
           id="g134"
           transform="translate(348.834,218.0312)"><path
             d="m 0,0 c -48.662,-35.231 -116.674,-24.34 -151.903,24.321 -35.233,48.666 -24.342,116.677 24.32,151.908 43.13,31.223 101.45,26.215 138.686,-9.202 -41.276,40.761 -107.14,46.933 -155.681,11.791 -54.06,-39.138 -66.158,-114.691 -27.02,-168.753 39.139,-54.06 114.69,-66.158 168.752,-27.02 C 45.691,18.184 60.395,82.676 34.566,134.614 56.582,88.185 43.127,31.222 0,0"
             style="fill:#f7ad04;fill-opacity:1;fill-rule:nonzero;stroke:none"
             id="path136"
             inkscape:connector-curvature="0" /></g><g
           id="g138"
           transform="translate(152.5708,103.8486)"><path
             d="m 0,0 0,0.632 -0.002,0 -0.055,32.033 c 0,1.786 -0.276,3.54 -0.818,5.211 -0.539,1.645 -1.38,3.146 -2.502,4.459 -1.121,1.312 -2.56,2.398 -4.283,3.222 -1.709,0.822 -3.795,1.239 -6.195,1.239 l -8.498,0 -0.004,-46.164 0,-0.037 0,-0.635 10e-4,0 0.055,-31.369 c 0,-1.749 0.276,-3.469 0.818,-5.105 0.539,-1.61 1.38,-3.083 2.502,-4.368 1.12,-1.286 2.561,-2.349 4.283,-3.156 1.709,-0.806 3.796,-1.215 6.194,-1.215 l 8.498,0 L 0,-0.04 0,0 Z"
             style="fill:#f7ad04;fill-opacity:1;fill-rule:nonzero;stroke:none"
             id="path140"
             inkscape:connector-curvature="0" /></g></g></g></g></svg>