<?xml version="1.0" encoding="UTF-8" standalone="no"?>
<!-- Created with Inkscape (http://www.inkscape.org/) -->

<svg
   xmlns:dc="http://purl.org/dc/elements/1.1/"
   xmlns:cc="http://creativecommons.org/ns#"
   xmlns:rdf="http://www.w3.org/1999/02/22-rdf-syntax-ns#"
   xmlns:svg="http://www.w3.org/2000/svg"
   xmlns="http://www.w3.org/2000/svg"
   xmlns:sodipodi="http://sodipodi.sourceforge.net/DTD/sodipodi-0.dtd"
   xmlns:inkscape="http://www.inkscape.org/namespaces/inkscape"
   width="45"
   height="45"
   id="svg3217"
   version="1.1"
   inkscape:version="0.48.4 r9939"
   sodipodi:docname="virada-icon.svg">
  <defs
     id="defs3219" />
  <sodipodi:namedview
     id="base"
     pagecolor="#ffffff"
     bordercolor="#666666"
     borderopacity="1.0"
     inkscape:pageopacity="0.0"
     inkscape:pageshadow="2"
     inkscape:zoom="8.1238712"
     inkscape:cx="4.7473971"
     inkscape:cy="17.455337"
     inkscape:document-units="px"
     inkscape:current-layer="layer1"
     showgrid="false"
     inkscape:window-width="1301"
     inkscape:window-height="744"
     inkscape:window-x="65"
     inkscape:window-y="336"
     inkscape:window-maximized="1" />
  <metadata
     id="metadata3222">
    <rdf:RDF>
      <cc:Work
         rdf:about="">
        <dc:format>image/svg+xml</dc:format>
        <dc:type
           rdf:resource="http://purl.org/dc/dcmitype/StillImage" />
        <dc:title></dc:title>
      </cc:Work>
    </rdf:RDF>
  </metadata>
  <g
     inkscape:label="Camada 1"
     inkscape:groupmode="layer"
     id="layer1"
     transform="translate(0,-1007.3622)">
    <path
       style="fill:#000000;fill-rule:evenodd"
       inkscape:connector-curvature="0"
       id="path19"
       d="m 31.387453,1007.3626 -0.731239,0 0,0 0,0.033 -8.15622,18.5726 -8.156214,-18.5726 0,-0.033 0,0 -0.731246,0 -1.968747,0 0,44.9995 2.699993,0 0,-35.8133 0,-2.2632 6.63747,15.1108 0,0.033 0.61875,1.3645 2.924988,6.6236 c 0.81562,1.6641 1.040615,3.4282 -0.05626,4.7262 -0.534377,0.6325 -1.237499,0.9652 -1.968746,0.9652 -0.703124,0 -1.43437,-0.3326 -1.96874,-0.9652 -1.09687,-1.298 -0.871875,-3.0621 -0.0281,-4.7262 l 1.012491,-2.3299 -1.518743,-3.4282 -1.349989,3.0622 -0.9,1.897 0,0.033 c -1.181244,2.463 -0.871868,5.6249 0.9,7.7217 1.040615,1.2649 2.446859,1.8971 3.853104,1.8971 1.406246,0 2.812491,-0.6322 3.881236,-1.8971 1.743744,-2.0968 2.053119,-5.2587 0.871869,-7.7217 l 0,-0.033 -0.899992,-1.897 -2.33437,-5.3255 6.637478,-15.1107 0,1.3313 0,36.7452 2.699986,0 0,-44.9995 -1.968747,0 z"
       class="fil0" />
  </g>
</svg>
