<?xml version="1.0" encoding="UTF-8" standalone="no"?>
<!-- Created with Inkscape (http://www.inkscape.org/) -->

<svg
   xmlns:dc="http://purl.org/dc/elements/1.1/"
   xmlns:cc="http://creativecommons.org/ns#"
   xmlns:rdf="http://www.w3.org/1999/02/22-rdf-syntax-ns#"
   xmlns:svg="http://www.w3.org/2000/svg"
   xmlns="http://www.w3.org/2000/svg"
   xmlns:sodipodi="http://sodipodi.sourceforge.net/DTD/sodipodi-0.dtd"
   xmlns:inkscape="http://www.inkscape.org/namespaces/inkscape"
   width="45"
   height="45"
   id="svg3217"
   version="1.1"
   inkscape:version="0.48.4 r9939"
   sodipodi:docname="icone-mapadeservicos.svg">
  <defs
     id="defs3219" />
  <sodipodi:namedview
     id="base"
     pagecolor="#ffffff"
     bordercolor="#666666"
     borderopacity="1.0"
     inkscape:pageopacity="0.0"
     inkscape:pageshadow="2"
     inkscape:zoom="4.0619356"
     inkscape:cx="16.312077"
     inkscape:cy="23.343565"
     inkscape:document-units="px"
     inkscape:current-layer="layer1"
     showgrid="false"
     inkscape:window-width="770"
     inkscape:window-height="716"
     inkscape:window-x="595"
     inkscape:window-y="336"
     inkscape:window-maximized="0" />
  <metadata
     id="metadata3222">
    <rdf:RDF>
      <cc:Work
         rdf:about="">
        <dc:format>image/svg+xml</dc:format>
        <dc:type
           rdf:resource="http://purl.org/dc/dcmitype/StillImage" />
        <dc:title></dc:title>
      </cc:Work>
    </rdf:RDF>
  </metadata>
  <g
     inkscape:label="Camada 1"
     inkscape:groupmode="layer"
     id="layer1"
     transform="translate(0,-1007.3622)">
    <g
       id="g3197"
       transform="matrix(2.1186441,0,0,-2.1186441,-61.994069,1246.6925)">
      <g
         transform="translate(44.3122,99.9394)"
         id="g82">
        <path
           inkscape:connector-curvature="0"
           id="path84"
           style="fill:#ffffff;fill-opacity:1;fill-rule:nonzero;stroke:none"
           d="m 0,0 c -0.824,0 -1.511,-0.343 -2.061,-0.893 l -3.091,2.198 c 0.206,0.412 0.343,0.893 0.343,1.443 0,0.412 -0.068,0.824 -0.206,1.236 l 2.954,1.855 c 0.481,-0.618 1.237,-1.03 2.13,-1.03 1.511,0 2.747,1.236 2.747,2.747 0,1.512 -1.236,2.748 -2.747,2.748 -1.512,0 -2.748,-1.236 -2.748,-2.748 0,-0.137 0,-0.343 0.069,-0.481 L -5.77,5.152 c -0.618,0.618 -1.511,1.03 -2.473,1.03 -1.924,0 -3.435,-1.511 -3.435,-3.434 0,-1.924 1.511,-3.435 3.435,-3.435 0.893,0 1.717,0.344 2.335,0.893 l 3.229,-2.335 c -0.069,-0.207 -0.069,-0.413 -0.069,-0.619 0,-1.511 1.237,-2.747 2.748,-2.747 1.511,0 2.748,1.236 2.748,2.747 C 2.748,-1.236 1.511,0 0,0" />
      </g>
    </g>
  </g>
</svg>
